<svg width="48" height="48" viewBox="0 0 48 48" fill="none" xmlns="http://www.w3.org/2000/svg">
<path fill-rule="evenodd" clip-rule="evenodd" d="M40 44.0001L8.00001 44L8.00001 42L40 42.0001L40 44.0001Z" fill="#FFFFFF"/>
<path fill-rule="evenodd" clip-rule="evenodd" d="M33.438 23L28.3599 18.7682L29.6402 17.2318L35.6402 22.2318C35.8682 22.4217 36 22.7032 36 23C36 23.2968 35.8682 23.5782 35.6402 23.7682L29.6402 28.7682L28.3599 27.2318L33.438 23Z" fill="#FFFFFF"/>
<path fill-rule="evenodd" clip-rule="evenodd" d="M14.562 23L19.6401 18.7682L18.3598 17.2318L12.3598 22.2318C12.1318 22.4217 12 22.7032 12 23C12 23.2968 12.1318 23.5782 12.3598 23.7682L18.3598 28.7682L19.6401 27.2318L14.562 23Z" fill="#FFFFFF"/>
<path fill-rule="evenodd" clip-rule="evenodd" d="M27.5 16.7292L22.7603 29L21 28.2708L25.7397 16L27.5 16.7292Z" fill="#FFFFFF"/>
<path fill-rule="evenodd" clip-rule="evenodd" d="M8 9C8 8.44772 8.44772 8 9 8H39C39.5523 8 40 8.44772 40 9V37C40 37.5523 39.5523 38 39 38H9C8.44772 38 8 37.5523 8 37V9ZM10 10V36H38V10H10Z" fill="#FFFFFF"/>
</svg>
