<svg width="240" height="112" viewBox="0 0 240 112" fill="none" xmlns="http://www.w3.org/2000/svg">
<path d="M183.268 59.4856V68.7681H188.624V59.6068C188.624 56.1484 190.009 54.9956 192.461 54.9956H194.349V50.3844H192.024C186.416 50.3844 183.268 53.7216 183.268 59.4856Z" fill="#0032A0"/>
<path d="M107.693 59.489V68.7715H113.047V59.6103C113.047 56.1518 114.433 54.999 116.889 54.999H118.775V50.3878H116.448C110.842 50.3878 107.693 53.725 107.693 59.489Z" fill="#0032A0"/>
<path d="M196.425 48.9892C196.425 48.3219 196.492 45.8952 198.692 44.5C200.203 43.6501 201.781 43.6502 203.418 43.6502H205.5V47.7152H204.299C203.477 47.7152 202.662 47.7758 202.218 48.5643C201.907 48.9892 201.907 49.2324 201.907 50.0208V50.6276H205.5V54.8138H201.907V65.3705C201.907 65.3705 201.781 68.7681 198.818 68.7681H196.425C196.425 68.7681 196.366 49.5353 196.425 48.9892Z" fill="#0032A0"/>
<path d="M43.6337 64.0392C44.3892 64.0392 45.1456 64.0998 45.9011 64.0392C47.0982 63.9786 48.1056 63.8571 48.862 62.8864C49.4916 62.0977 49.4916 61.3091 49.4916 60.9448C49.4916 58.8823 47.9167 58.1545 47.1612 58.0325C46.5937 57.9113 45.4604 57.9113 44.0744 57.9113H40.2951V63.3111C40.2951 63.3111 40.358 64.0391 41.051 64.0391L43.6337 64.0392ZM43.4448 53.4221C45.4604 53.4221 46.7826 53.4827 47.6019 53.1184C48.1056 52.876 48.9879 52.2693 48.9879 50.8128C48.9879 49.4176 47.9797 48.8109 47.476 48.6897C46.7196 48.386 45.7752 48.386 44.0744 48.386H40.2951V53.4221H43.4448ZM43.1929 43.6536C44.5781 43.6536 46.0271 43.593 47.4131 43.7142C48.3575 43.8354 51.1925 44.0179 53.271 46.141C54.2784 47.2332 54.7829 48.5071 54.7829 50.0243C54.7829 50.9945 54.5941 53.2396 52.3258 54.6962C51.8221 55.0597 51.5702 55.1202 51.0665 55.3028C51.948 55.6663 52.4517 56.0307 52.7673 56.2731C53.8377 56.9404 55.4755 58.518 55.4755 61.491C55.4755 62.2191 55.3496 63.9786 54.2154 65.6167C51.7591 69.0143 47.3501 68.7716 46.2789 68.7716C45.0197 68.7716 43.8225 68.7716 42.6257 68.7716H38.2165C34.626 68.7716 34.5 65.192 34.5 65.192V43.6536H43.1929Z" fill="#0032A0"/>
<path d="M78.277 50.5709H83.7572V68.772H78.277V50.5709Z" fill="#0032A0"/>
<path d="M144.729 59.7311C144.729 62.0367 145.417 63.2502 146.173 64.0389C146.87 64.8276 147.684 65.1309 148.758 65.1309C149.833 65.1309 150.589 64.7669 150.899 64.5242C152.032 63.7355 152.788 62.2795 152.788 59.5494C152.788 59.1244 152.914 56.5159 151.218 55.1199C150.84 54.817 150.085 54.3314 148.884 54.3314C146.87 54.3921 144.729 55.7266 144.729 59.7311ZM158.211 43.6533V68.7712H152.788C152.788 68.7106 152.788 67.4364 152.914 66.6477C152.477 67.4971 152.1 67.8611 151.722 68.1646C150.27 69.3779 148.129 69.3779 147.625 69.3779C147.054 69.3779 145.543 69.378 144.099 68.7106C141.959 67.6792 139.247 65.1309 139.247 59.8523C139.247 59.185 139.314 57.4861 139.944 55.7266C141.136 52.3296 143.906 50.024 147.751 50.024C149.833 50.024 151.218 50.7518 151.907 51.2373C152.284 51.6009 152.477 51.9047 152.603 52.0864V46.9299C152.603 46.9299 152.536 43.6533 156.129 43.6533H158.211Z" fill="#0032A0"/>
<path d="M70.4039 57.4867C70.4039 57.3655 70.4039 57.0626 70.278 56.6983C69.9003 55.06 68.3883 54.0898 66.6875 54.0898C64.9237 54.0898 63.5377 55.06 62.9081 56.6378C62.7822 57.0021 62.7193 57.4262 62.6563 57.5474L70.4039 57.4867ZM62.7192 61.2489C62.7192 62.0981 62.9711 62.7655 63.4748 63.4935C64.546 65.1316 66.2468 65.253 66.9393 65.253C68.9549 65.253 69.7743 64.2216 70.278 63.5542H75.8841C73.8055 69.0753 68.7661 69.5 66.6875 69.5C64.9867 69.4394 63.7266 69.1359 63.097 68.8933C59.1287 67.4978 57.1131 63.8576 57.1131 59.9136C57.1131 58.8828 57.239 55.8492 59.2547 53.3005C60.2629 52.0265 62.5303 49.9641 66.7505 49.9641C67.3801 49.9641 68.955 50.0247 70.6558 50.6919C72.5455 51.4804 74.9388 53.3005 75.8211 57.6693C75.8841 58.1548 76.136 59.3068 76.136 60.6422C76.136 60.824 76.1359 61.0664 76.073 61.2489H62.7192Z" fill="#0032A0"/>
<path d="M99.7574 57.4867C99.7574 57.3655 99.7575 57.0626 99.6316 56.6983C99.2538 55.06 97.7418 54.0898 96.041 54.0898C94.2781 54.0898 92.8292 55.06 92.2617 56.6378C92.1358 57.0021 92.0098 57.4262 92.0098 57.5474L99.7574 57.4867ZM92.0098 61.2489C92.0727 62.0981 92.3255 62.7655 92.7662 63.4935C93.8995 65.1316 95.5373 65.253 96.2307 65.253C98.2464 65.253 99.1278 64.2216 99.5686 63.5542H105.175C103.159 69.0753 98.1205 69.5 96.041 69.5C94.2781 69.4394 93.081 69.1359 92.4513 68.8933C88.4193 67.4978 86.4037 63.8576 86.4037 59.9136C86.4037 58.8828 86.5296 55.8492 88.609 53.3005C89.6164 52.0265 91.8839 49.9641 96.041 49.9641C96.7345 49.9641 98.3093 50.0247 99.9472 50.6919C101.837 51.4804 104.293 53.3005 105.112 57.6693C105.175 58.1548 105.427 59.3068 105.427 60.6422C105.427 60.824 105.427 61.0664 105.364 61.2489H92.0098Z" fill="#0032A0"/>
<path d="M131.878 56.0298C131.819 55.6654 131.694 55.4231 131.5 55.1193C131.123 54.4521 130.183 53.8453 128.537 53.8453C128.033 53.8453 127.656 53.9059 127.53 53.9059C126.338 54.2097 125.893 54.9375 125.893 55.4836C125.893 56.0903 126.464 56.3941 126.648 56.4547C126.9 56.6365 127.849 56.8182 128.789 57.0614L130.812 57.425L132.575 57.7893C134.464 58.2748 136.034 58.8209 136.915 60.6409C137.041 61.0045 137.419 61.9148 137.419 63.0069C137.419 63.6136 137.36 65.0697 136.286 66.5259C135.219 68.1033 133.138 69.3774 128.982 69.3774C124.885 69.3774 122.812 68.164 121.611 66.7685C121.049 66.0405 120.293 65.0091 120.1 62.8856H125.33C125.33 63.0676 125.389 63.6743 125.767 64.2203C126.212 64.827 127.278 65.4945 129.108 65.4945C129.301 65.4945 129.738 65.4944 130.241 65.3731C130.434 65.3125 131.945 64.9483 131.945 63.6743C131.945 62.4002 130.745 62.2182 128.73 61.7935C125.204 61.0045 123.441 60.641 122.115 59.4882C120.73 58.2748 120.671 56.6365 120.671 56.0298C120.671 54.452 121.301 53.4212 121.611 52.8751C122.686 51.3579 124.633 50.0234 128.604 50.0234C129.486 50.0234 133.389 49.9628 135.656 52.632C136.856 54.0279 136.982 55.3625 136.982 56.0298H131.878Z" fill="#0032A0"/>
<path d="M166.32 59.7286C166.32 63.8544 168.721 65.1285 170.795 65.1285C171.114 65.1285 171.995 65.0679 172.81 64.7038C174.069 64.0364 175.269 62.5804 175.269 59.5469C175.269 59.2432 175.269 58.0904 174.892 57.0595C174.573 56.0885 173.632 54.2078 170.795 54.2078C168.721 54.2684 166.32 55.4212 166.32 59.7286ZM177.477 52.1446C179.744 53.9647 180.81 56.877 180.81 59.6075C180.81 63.6725 178.485 67.5553 174.388 68.8901C173.632 69.1328 172.499 69.3755 170.736 69.3755C170.039 69.3755 168.469 69.3755 166.698 68.7688C162.795 67.3126 160.78 63.6724 160.78 59.7286C160.78 56.2096 162.358 53.9647 163.298 52.8733C164.499 51.7205 166.824 50.0215 170.921 50.0215C171.995 50.0821 174.95 50.1428 177.477 52.1446Z" fill="#0032A0"/>
<path d="M84.1954 45.3517C84.1954 46.9294 82.7464 48.2033 80.9835 48.2033C79.2827 48.2033 77.8338 46.9294 77.8338 45.3517C77.8338 43.7134 79.2827 42.5 80.9835 42.5C82.7464 42.5 84.1954 43.7134 84.1954 45.3517Z" fill="#0032A0"/>
</svg>
