<svg width="179" height="179" viewBox="0 0 179 179" fill="none" xmlns="http://www.w3.org/2000/svg">
<path d="M0 12C0 5.37259 5.37258 0 12 0H167C173.627 0 179 5.37258 179 12V167C179 173.627 173.627 179 167 179H12C5.37259 179 0 173.627 0 167V12Z" fill="#DEF5FF"/>
<path fill-rule="evenodd" clip-rule="evenodd" d="M63.8161 156.496C64.9705 157.247 66.6093 157.185 68.4271 156.136L130.668 120.201C134.164 118.183 136.998 113.274 136.998 109.238V37.3675C136.998 35.43 136.345 34.0455 135.279 33.3528L114.181 21.1714C115.246 21.8641 115.899 23.2486 115.899 25.1862V97.0562C115.899 101.093 113.065 106.001 109.57 108.019L47.3284 143.954C45.5106 145.004 43.8718 145.065 42.7173 144.315L63.8161 156.496Z" fill="#0F2B46" stroke="#DEF5FF" stroke-width="0.5" stroke-linejoin="round"/>
<path fill-rule="evenodd" clip-rule="evenodd" d="M135.281 33.3525C134.127 32.602 132.488 32.6633 130.67 33.7128L68.4289 69.6479C64.9331 71.6661 62.0993 76.5745 62.0993 80.6111V152.481C62.0993 154.419 62.7522 155.803 63.8178 156.496L42.7191 144.315C41.6535 143.622 41.0005 142.237 41.0005 140.3V68.4297C41.0005 64.3932 43.8344 59.4848 47.3301 57.4665L109.571 21.5315C111.389 20.482 113.028 20.4206 114.183 21.1711L135.281 33.3525Z" fill="#0F2B46" stroke="#DEF5FF" stroke-width="0.5" stroke-linejoin="round"/>
<rect width="86.1443" height="86.4259" rx="7.30882" transform="matrix(-0.866025 0.5 0 1 136.998 30.0586)" fill="#0F2B46"/>
<rect width="86.1443" height="86.4259" rx="7.30882" transform="matrix(-0.866025 0.5 0 1 136.998 30.0586)" stroke="#DEF5FF" stroke-width="0.5"/>
<path d="M122.319 81.2068L107.026 81.7331V84.3448L120.8 83.7601L120.766 82.4932L107.026 97.793V100.483L122.319 83.3508V81.2068ZM97.3053 81.5764L94.9085 82.9602L102.437 107.225L104.833 105.842L97.3053 81.5764ZM92.7641 106.105L78.9908 106.69V107.976L92.7641 92.657V89.9674L77.4717 107.099V109.243L92.7641 108.717V106.105Z" fill="#DEF5FF"/>
</svg>
