<svg width="241" height="112" viewBox="0 0 241 112" fill="none" xmlns="http://www.w3.org/2000/svg">
<g clip-path="url(#clip0_2208_18433)">
<path d="M145.371 35H95.7712C92.3612 35 89.5712 37.7 89.5712 41V71C89.5712 74.3 92.3612 77 95.7712 77H145.371C148.781 77 151.571 74.3 151.571 70.94V41C151.571 37.7 148.781 35 145.371 35Z" fill="#F10D0C"/>
<path d="M147.046 70.9403C147.108 71.8403 146.364 72.6203 145.372 72.6803H95.7715C94.8415 72.6803 94.0975 71.9003 94.0975 71.0003V41.0003C94.0355 40.1003 94.7795 39.3203 95.7095 39.2603H145.372C146.302 39.2603 147.046 40.0403 147.046 40.9403V70.9403Z" fill="white"/>
<path d="M108.544 69.7402H98.128V42.2602H108.544C115.922 42.2602 119.952 46.7002 119.952 55.8802C119.952 63.8002 117.162 69.6802 108.544 69.7402ZM113.07 56.4202C113.07 50.9002 112.45 46.5802 106.312 46.5802H104.948V65.3002H107.366C110.962 65.3002 113.07 62.4802 113.07 56.4202ZM137.932 55.3402C140.846 54.5002 142.83 51.9202 142.892 48.9202C142.892 48.3202 142.768 42.2002 134.77 42.2002H122.928V69.6802H132.972C135.638 69.6802 143.946 69.6802 143.946 61.9402C143.946 60.0802 143.078 56.4202 137.932 55.3402ZM129.686 46.5202H131.856C134.894 46.5202 136.134 47.5402 136.134 49.8202C136.134 51.6202 134.77 53.1202 132.414 53.1202H129.748V46.5202H129.686ZM132.476 65.3002H129.686V58.2202H132.662C136.196 58.2202 137.064 60.2002 137.064 61.7602C137.064 65.3002 133.592 65.3002 132.476 65.3002Z" fill="#F10D0C"/>
</g>
<defs>
<clipPath id="clip0_2208_18433">
<rect width="62" height="42" fill="white" transform="translate(89.5714 35)"/>
</clipPath>
</defs>
</svg>
