<svg width="48" height="48" viewBox="0 0 48 48" fill="none" xmlns="http://www.w3.org/2000/svg">
<path fill-rule="evenodd" clip-rule="evenodd" d="M17.2407 4.34921C17.4307 4.12756 17.7081 4 18 4H36C36.5523 4 37 4.44772 37 5V37C37 37.5523 36.5523 38 36 38H12C11.4477 38 11 37.5523 11 37V12C11 11.7613 11.0854 11.5305 11.2407 11.3492L17.2407 4.34921ZM18.4599 6L13 12.3699V36H35V6H18.4599Z" fill="#0F2B46"/>
<path fill-rule="evenodd" clip-rule="evenodd" d="M40 44H8V42H40V44Z" fill="#0F2B46"/>
<path fill-rule="evenodd" clip-rule="evenodd" d="M31 22H17V20H31V22Z" fill="#0F2B46"/>
<path fill-rule="evenodd" clip-rule="evenodd" d="M31 29H17V27H31V29Z" fill="#0F2B46"/>
</svg>
