<svg width="179" height="180" viewBox="0 0 179 180" fill="none" xmlns="http://www.w3.org/2000/svg">
<path d="M0 12.6665C0 6.03909 5.37258 0.666504 12 0.666504H167C173.627 0.666504 179 6.03909 179 12.6665V167.667C179 174.294 173.627 179.667 167 179.667H12C5.37259 179.667 0 174.294 0 167.667V12.6665Z" fill="#DEF5FF"/>
<circle cx="88.6334" cy="89.3843" r="65.6334" fill="#A6E9FF" stroke="#0F2B46" stroke-width="0.5" stroke-linejoin="round"/>
<path d="M42.2245 51.4503L42.4308 51.7026L42.2245 51.4503ZM88.6342 35.7375V35.4116V35.7375ZM135.044 51.4503L135.25 51.1979L135.044 51.4503ZM135.036 116.285L134.873 116.003L135.036 116.285ZM88.6297 127.429V127.103V127.429ZM42.2232 116.285L42.0597 116.567L42.2232 116.285ZM88.6322 35.7377L88.7956 36.0197L88.6322 35.7377ZM88.6335 35.7376L88.7969 35.4556L88.6335 35.7376ZM42.2245 51.4503L42.4308 51.7026C55.1805 41.2815 71.9017 36.0635 88.6342 36.0635V35.7375V35.4116C71.7728 35.4116 54.9 40.6688 42.0183 51.1979L42.2245 51.4503ZM88.6342 35.7375V36.0635C105.367 36.0634 122.088 41.2814 134.838 51.7026L135.044 51.4503L135.25 51.1979C122.369 40.6688 105.496 35.4116 88.6342 35.4116V35.7375ZM23.001 89.3842H23.3269C23.3269 75.761 29.6841 62.1214 42.4308 51.7026L42.2245 51.4503L42.0183 51.1979C29.1336 61.7295 22.6751 75.5487 22.675 89.3842H23.001ZM135.044 51.4503L134.838 51.7026C147.585 62.1214 153.942 75.761 153.942 89.3842H154.268H154.594C154.594 75.5486 148.135 61.7295 135.25 51.1979L135.044 51.4503ZM135.036 116.285L134.873 116.003C122.119 123.397 105.383 127.103 88.6297 127.103V127.429V127.754C105.468 127.754 122.324 124.032 135.2 116.567L135.036 116.285ZM88.6297 127.429V127.103C71.8761 127.103 55.1401 123.397 42.3866 116.003L42.2232 116.285L42.0597 116.567C54.9358 124.032 71.7916 127.754 88.6297 127.754V127.429ZM42.2232 116.285L42.3866 116.003C29.6315 108.609 23.3269 98.9628 23.3269 89.3829H23.001H22.675C22.675 99.2765 29.1852 109.104 42.0597 116.567L42.2232 116.285ZM154.258 89.3829H153.932C153.932 98.9628 147.628 108.609 134.873 116.003L135.036 116.285L135.2 116.567C148.074 109.104 154.584 99.2765 154.584 89.3829H154.258ZM42.3619 116.208H42.6878C42.6878 101.464 47.8444 85.1057 56.1967 70.5799C64.5491 56.054 76.0797 43.3912 88.7956 36.0197L88.6322 35.7377L88.4687 35.4557C75.6303 42.8983 64.0258 55.6564 55.6316 70.255C47.2374 84.8536 42.036 101.323 42.036 116.208H42.3619ZM56.0062 146.338L56.1683 146.056C47.8784 141.303 42.6878 131.008 42.6878 116.208H42.3619H42.036C42.036 131.144 47.2794 141.711 55.8441 146.621L56.0062 146.338ZM88.6322 35.7377L88.7956 36.0197C101.463 28.676 112.86 27.996 121.089 32.7094L121.251 32.4265L121.413 32.1437C112.912 27.2741 101.255 28.0434 88.4687 35.4557L88.6322 35.7377ZM88.6335 35.7376L88.47 36.0195C101.186 43.3911 112.717 56.0539 121.069 70.5798C129.421 85.1056 134.578 101.464 134.578 116.208H134.904H135.23C135.23 101.323 130.028 84.8534 121.634 70.2548C113.24 55.6563 101.635 42.8982 88.7969 35.4556L88.6335 35.7376ZM56.0166 32.4251L56.1785 32.7079C64.4073 27.996 75.8034 28.6766 88.47 36.0195L88.6335 35.7376L88.7969 35.4556C76.0119 28.044 64.3562 27.2741 55.8546 32.1423L56.0166 32.4251ZM134.904 116.208H134.578C134.578 131.012 129.384 141.31 121.09 146.06L121.252 146.343L121.414 146.626C129.983 141.718 135.23 131.149 135.23 116.208H134.904ZM88.6324 23.6665H88.3064V155.101H88.6324H88.9583V23.6665H88.6324Z" fill="#0F2B46"/>
</svg>
