<svg width="241" height="112" viewBox="0 0 241 112" fill="none" xmlns="http://www.w3.org/2000/svg">
<path d="M65.3428 65.9895V71.4713H62.7142V40H65.3428V62.4464V65.9895Z" fill="#3D3F42"/>
<path d="M70.9849 59.9281L66.3194 64.9368V61.375L78.1491 48.4336H81.6917L81.5688 48.5658L70.9849 59.935V59.9281Z" fill="#3D3F42"/>
<path d="M83.1698 71.5129H79.8708L71.5861 60.7164L73.4003 58.7686L83.1698 71.5129Z" fill="#3D3F42"/>
<path d="M103.834 69.7481C101.778 71.2159 99.3144 72.002 96.7856 71.9973C89.9904 71.9973 85.058 66.9585 85.058 60.0182C85.058 53.1336 90.162 47.9417 96.9318 47.9417C99.4096 47.9046 101.834 48.6768 103.834 50.1376V53.6066C102.145 51.6055 99.6532 50.453 97.0292 50.46C91.7025 50.46 87.6843 54.5713 87.6843 60.0182C87.6843 65.5881 91.4241 69.4768 96.7833 69.4768C99.4954 69.493 102.078 68.3127 103.831 66.2489L103.834 69.7481Z" fill="#3D3F42"/>
<path d="M104.809 48.4316H107.435V71.5157H104.809V48.4316Z" fill="#3D3F42"/>
<path d="M127.879 50.9521H114.015V48.4292H129.893L127.879 50.9521Z" fill="#3D3F42"/>
<path d="M116.063 71.5157H112.713L125.403 55.6154L131.141 48.4316H134.486L118.077 68.9905L116.063 71.5157Z" fill="#3D3F42"/>
<path d="M119.324 68.9927H133.265V71.5156H117.313L119.324 68.9927Z" fill="#3D3F42"/>
<path d="M159.136 48.4316V71.5134H156.507V49.7603V48.4316H159.136Z" fill="#3D3F42"/>
<path d="M155.531 69.7508C153.475 71.2187 151.009 72.0048 148.482 72.0001C141.687 72.0001 136.755 66.9613 136.755 60.021C136.755 53.1364 141.859 47.9445 148.629 47.9445C151.109 47.9097 153.531 48.6796 155.531 50.1404V53.6094C153.842 51.6083 151.35 50.4558 148.726 50.4627C143.399 50.4627 139.383 54.574 139.383 60.021C139.383 65.5908 143.126 69.4795 148.482 69.4795C151.195 69.4981 153.777 68.3155 155.531 66.254V69.7508Z" fill="#3D3F42"/>
<path d="M169.464 70.3609V71.5134H166.836V48.4316H169.464V48.4363V70.3609Z" fill="#3D3F42"/>
<path d="M178.714 48.0023V50.5438C178.308 50.4927 177.9 50.4672 177.489 50.4649C174.8 50.4185 172.225 51.5455 170.441 53.549V50.2098C172.141 48.8093 174.431 47.9443 177.489 47.9443C177.904 47.9443 178.313 47.9652 178.714 48.0023Z" fill="#3D3F42"/>
</svg>
