<svg width="241" height="112" viewBox="0 0 241 112" fill="none" xmlns="http://www.w3.org/2000/svg">
<path fill-rule="evenodd" clip-rule="evenodd" d="M110.636 75.5278C111.255 75.3487 111.168 75.4122 111.931 75.1811C112.358 75.0424 112.774 74.8576 113.202 74.6958C113.398 74.6207 113.589 74.5802 113.774 74.6496C113.843 74.6785 113.964 74.6842 114.051 74.6553C115.114 74.3145 114.825 74.5225 115.859 74.1007C115.981 74.0487 119.286 72.9971 119.557 72.9105C119.846 72.8065 120.158 72.7256 120.447 72.6216C121.527 72.2114 122.642 71.934 123.752 71.6278L125.058 71.2523C125.329 71.1772 125.583 71.0847 125.739 70.8709C125.78 70.8132 128.484 69.9176 128.576 69.8887C128.738 69.8309 128.911 69.7674 129.079 69.7443C129.697 69.6634 130.292 69.4438 130.887 69.2705C131.933 68.9701 132.99 68.8141 134.03 68.7216C134.493 68.6812 134.949 68.7447 135.4 68.7678C135.654 68.7794 135.908 68.8083 136.162 68.8314C136.66 68.8844 137.164 68.8571 137.653 68.7505C137.792 68.7216 137.925 68.7101 138.057 68.6927C138.144 68.6754 138.248 68.7563 138.225 68.8199L138.109 69.1087C137.913 69.5421 137.532 69.8425 136.913 69.9638C136.405 70.0678 135.914 70.2932 135.4 70.3336C134.857 70.5705 134.296 70.7265 133.724 70.8652C133.597 70.8941 133.458 70.9749 133.366 71.0558C133.181 71.206 132.973 71.2985 132.73 71.3678C132.297 71.4949 131.875 71.6567 131.465 71.8416C131.251 71.9456 131.026 72.038 130.795 72.1189C130.229 72.3038 129.691 72.5291 129.2 72.8354L129.114 72.8816C127.987 73.3438 126.86 73.806 125.682 74.1065C125.173 74.2393 124.699 74.4185 124.226 74.6207C124.214 74.6266 124.204 74.6348 124.196 74.6447C124.188 74.6547 124.183 74.6662 124.179 74.6785C124.179 74.7016 118.691 76.4233 118.61 76.4464C118.275 76.5273 117.939 76.6024 117.604 76.6949C116.83 76.9086 116.073 77.1686 115.293 77.3478C115.126 77.3882 114.958 77.4402 114.802 77.5153C114.427 77.6886 114.022 77.7984 113.618 77.9198L112.416 78.2549C112.277 78.2953 112.144 78.3531 112.011 78.3704C111.283 78.4397 110.607 78.7286 109.908 78.9309C109.573 79.0291 109.25 79.1273 108.903 79.1677C108.551 79.2082 108.291 79.4682 107.955 79.5606L107.349 79.7224L106.436 79.9477C106.135 80.0286 105.841 80.1153 105.529 80.1442C105.298 80.1731 105.049 80.2251 104.818 80.2944C103.645 80.6642 102.461 80.8028 101.276 80.9531C100.947 80.9993 100.618 80.9762 100.294 80.9646C99.9822 80.9531 99.78 80.8317 99.6587 80.6411C99.5431 80.4677 99.5778 80.3522 99.8262 80.1846C99.988 80.0691 100.167 79.9708 100.323 79.8495C100.866 79.4335 101.496 79.1042 102.155 78.7864C102.966 78.4051 103.786 78.0448 104.616 77.706C105.228 77.4575 105.483 77.4575 106.107 77.2322C106.268 77.1744 106.939 76.7873 106.939 76.7873C107.597 76.4695 108.302 76.2731 108.995 76.0535L110.636 75.5278ZM121.949 62.7128L121.874 61.3781C121.857 60.9968 121.932 60.627 122.047 60.2804C122.394 59.2346 122.515 58.8591 122.527 58.2524C122.556 56.9871 122.596 52.8214 122.4 51.5618C122.284 50.7934 122.284 50.0018 122.255 49.2276C122.238 48.6325 122.255 48.0374 122.255 47.4365C122.255 47.2921 122.278 47.1419 122.255 46.9974C122.169 46.4774 122.244 45.9574 122.221 45.4374C122.174 44.3974 122.226 40.6419 122.348 39.6019C122.423 38.9722 122.382 38.3308 122.44 37.7068C122.521 36.742 122.59 35.7771 122.885 34.8469C122.943 34.6735 122.954 34.4887 122.989 34.3038C123.001 34.2113 122.862 34.09 122.758 34.1073C122.392 34.1696 122.04 34.2968 121.718 34.4829C121.111 34.8527 121.019 34.6215 120.424 35.0086C119.956 35.3149 119.471 35.5922 119.003 35.8926C118.656 36.1122 119.291 35.4131 119.06 35.7655C118.829 36.1122 118.806 36.118 118.477 36.3722C118.176 36.6033 117.928 36.8749 117.807 37.2504C117.72 37.5162 117.523 37.6722 117.235 37.7126C117.165 37.7242 117.09 37.7588 117.015 37.7531C116.535 37.7473 116.166 37.9264 115.859 38.3019C115.651 38.5446 115.339 38.5677 115.022 38.5042C114.889 38.4753 114.75 38.2788 114.802 38.1806C114.929 37.9495 115.033 37.7126 115.178 37.4988C115.391 37.1926 115.634 36.9037 115.871 36.6206C116.31 36.1122 115.796 36.5629 116.241 36.0602C117.004 35.2107 117.845 34.435 118.754 33.7433C119.072 33.4891 119.401 33.2407 119.725 32.9922C120.822 32.1429 121.47 32.01 122.746 31.4611C123.896 30.9758 125.098 30.7043 126.288 30.3749C126.537 30.3056 126.808 30.2883 127.062 30.2594C127.363 30.2189 127.675 30.2363 127.958 30.1496C128.767 29.9185 129.593 30.0051 130.408 30.0803C131.477 30.1785 132.418 30.5887 133.204 31.3571C133.765 31.906 134.354 32.4145 134.712 33.1251C134.886 33.4544 135.232 33.6624 135.382 34.0149C135.509 34.3211 135.671 34.6158 135.81 34.922C135.943 35.2109 136.272 35.4304 136.197 35.8175C136.324 36.0891 136.457 36.3491 136.573 36.6264C136.63 36.7593 136.636 36.9153 136.665 37.0597C136.705 37.2793 136.723 37.5046 136.781 37.7184C137 38.4811 136.948 39.2668 136.971 40.0468C136.971 40.2259 136.913 40.4108 136.896 40.5957C136.85 40.925 136.781 43.9814 136.781 44.3166C136.768 44.8002 136.662 45.2769 136.469 45.7205C136.324 46.0208 136.239 46.3467 136.22 46.6796C136.225 46.755 136.211 46.8304 136.18 46.8992C135.683 47.7254 135.434 48.6787 134.868 49.4645C134.782 49.5801 134.678 49.6956 134.562 49.788C133.799 50.4352 133.071 51.14 132.135 51.5618C132.037 51.608 131.956 51.6947 131.87 51.7698C131.413 52.1454 131.124 52.1165 131.54 52.9542C131.621 53.116 131.667 53.3009 131.731 53.4742C131.875 53.8613 132.049 54.2253 132.32 54.5431C132.838 55.1798 133.23 55.9092 133.476 56.6924C133.534 56.8658 133.805 57.0969 133.932 57.2124C134.55 57.8249 135.007 58.6626 135.562 59.1711C135.723 59.3213 135.891 59.4831 136.001 59.6679C136.261 60.1302 136.33 60.1417 136.809 60.5462C137.38 61.0284 137.972 61.4853 138.583 61.9155C139.069 62.2621 139.565 62.6088 140.109 62.8457C140.825 63.1692 141.593 63.383 142.391 63.3657C142.767 63.3651 143.139 63.2864 143.483 63.1346C144.442 62.6897 145.892 61.147 146.661 60.419C147.209 59.8991 147.631 58.3275 147.885 57.6053C147.903 57.5649 147.989 57.536 148.053 57.5186C148.07 57.5129 148.122 57.5591 148.128 57.588C148.192 57.7613 148.273 57.9346 148.301 58.1195C148.4 58.8244 148.186 60.4884 148.203 61.1875C147.914 61.9964 147.082 63.7875 146.297 64.3017C145.927 64.5443 145.534 64.7812 145.28 65.1683C144.33 65.9048 143.226 66.4165 142.05 66.6648C141.541 66.7514 141.01 66.7572 140.484 66.7283C138.173 66.607 137.104 66.7745 135.25 65.4168C134.071 64.5559 131.436 61.7017 131.303 61.5226C130.46 60.3902 129.703 58.6337 129.067 57.4955C128.328 56.1609 127.577 54.832 126.987 53.4222C126.889 53.1911 126.739 53.0582 126.502 53.0005C126.41 52.9774 126.248 53.0698 126.248 53.1507C126.23 54.0751 125.999 57.9 126.109 58.8302C126.022 59.3502 125.988 59.8702 126.069 60.3844C126.219 61.3493 126.046 63.279 126.15 64.2439C126.161 64.3883 126.115 64.5328 126.098 64.683C126.057 65.0123 125.994 65.3474 125.994 65.6825C125.989 66.1663 125.857 66.6404 125.612 67.0576C125.329 67.5661 125.312 67.8145 124.497 67.6701C124.35 67.6436 124.199 67.6436 124.052 67.6701C123.532 67.7741 123.186 67.5199 122.885 67.1616C122.572 66.7915 122.344 66.3578 122.215 65.8905C122.013 65.1626 121.984 63.4581 121.949 62.7128ZM127.288 33.5816V33.5873L126.167 33.6451C125.907 33.6682 125.768 33.8011 125.722 34.0669C125.647 34.4655 125.531 34.87 125.612 35.2802C125.728 35.8638 125.67 36.4589 125.658 37.0482C125.653 37.4526 125.653 37.8571 125.612 38.2615C125.849 38.8219 125.676 39.4402 125.861 40.0064C125.895 40.9308 125.936 44.5823 125.97 45.5068C125.97 45.5819 125.936 45.6512 125.924 45.7263C125.873 46.0232 125.924 46.3288 126.069 46.593C126.132 46.7201 126.207 46.8472 126.363 46.8992C126.542 46.957 126.727 47.009 126.889 47.0956C127.507 47.4365 128.16 47.7312 128.53 48.3956C128.646 48.6094 128.911 48.6036 129.108 48.4245C129.582 47.997 129.974 47.5001 130.304 46.957C130.679 46.3561 131.095 45.6974 131.124 44.9752C131.17 43.8601 131.309 40.0295 131.413 38.9202C131.462 38.2536 131.443 37.5837 131.355 36.9211C131.269 36.1237 130.835 35.4073 130.425 34.7371C130.22 34.3562 129.912 34.0409 129.536 33.8273C129.16 33.6137 128.731 33.5105 128.299 33.5296C127.958 33.5411 127.623 33.5642 127.288 33.5873M91.9743 67.2021C92.0089 66.5203 92.0667 66.6301 92.0783 65.775C92.084 65.2954 92.0089 64.8101 91.9743 64.3306C91.9569 64.0995 91.9858 63.8972 92.188 63.7355C92.2716 63.6614 92.3234 63.5579 92.3325 63.4466C92.3383 62.2621 92.5058 61.6555 92.3729 60.4653C92.3556 60.3208 92.3152 60.5577 92.2343 60.4422C91.9916 60.0666 91.7258 59.7026 91.4832 59.3328C91.4023 59.2173 91.3618 58.6973 91.4369 58.5355C91.6969 57.9577 91.9223 57.7555 92.188 57.1777C92.3152 56.9004 92.3787 56.6231 92.3729 56.3169C92.3729 55.9875 92.396 55.6467 92.3729 55.3173C92.2805 54.0867 92.4134 52.8618 92.4885 51.6369C92.5174 51.1574 92.5405 50.672 92.5578 50.1925C92.5751 49.8863 92.5636 49.5974 92.3094 49.3663C92.2343 49.3085 92.2112 46.2636 92.2054 46.1596C92.183 45.9745 92.1927 45.7868 92.2343 45.605C92.4076 44.9463 92.3729 44.2761 92.4076 43.6117C92.4654 42.4503 92.7427 41.3295 93.124 40.2375C93.2916 39.7522 93.6094 39.313 93.8751 38.8682C94.0196 38.6082 94.1929 38.3655 94.3547 38.1171C94.6721 37.6532 94.8814 37.1241 94.9671 36.5686C94.9845 36.4242 95.0365 36.2797 95.0769 36.1353C95.1 36.0486 95.2734 35.9735 95.3542 36.0197L95.7413 36.2335C96.3133 36.5744 96.5849 37.0597 96.4693 37.73C96.3711 38.2788 96.4809 38.8508 96.2787 39.3882C96.3827 40.0122 96.3365 40.6361 96.2671 41.2659C96.2556 41.4046 96.3076 41.5664 96.3827 41.6877C96.5213 41.9188 96.5618 42.1672 96.556 42.4388C96.5329 42.9183 96.5676 43.3979 96.6542 43.8774C96.7062 44.1317 96.7351 44.3974 96.7409 44.6517C96.7467 45.2872 96.8276 45.9112 97.0529 46.5063L97.0876 46.6103C97.232 47.9045 97.388 49.1987 97.2609 50.4987C97.2147 51.0591 97.2609 51.5965 97.336 52.1454C97.336 52.1742 97.3764 52.2031 97.4053 52.2147C97.44 52.2262 97.4804 52.2147 97.5151 52.2031C97.5471 52.1866 97.5748 52.1629 97.596 52.1338C98.2662 51.0129 99.052 49.9672 99.7915 48.8983C99.8147 48.8694 99.8435 48.8405 99.8551 48.8058C100.45 47.6272 101.404 46.7085 102.195 45.6801C102.264 45.5934 102.357 45.5183 102.426 45.4316C102.773 44.9521 103.091 44.4379 103.501 44.0103C103.911 43.577 104.31 43.1379 104.691 42.6815C104.836 42.5081 104.974 42.3348 105.096 42.1441C105.881 40.873 106.551 39.8562 107.32 38.5793C107.591 38.1286 107.938 37.7415 108.244 37.3197C108.672 36.7535 109.111 36.1989 109.527 35.6269C109.723 35.3553 109.92 35.0722 110.047 34.766C110.272 34.2055 110.602 33.726 110.989 33.2638C111.278 32.9229 111.515 32.5416 111.763 32.166L112.976 30.294C112.994 30.2709 113.051 30.2651 113.092 30.2709C113.115 30.2709 113.15 30.294 113.161 30.3171C113.248 30.5598 113.219 30.8256 113.369 31.0567C113.427 31.1318 113.415 31.2705 113.387 31.3745C113.311 31.6634 113.248 31.9522 113.063 32.2007C112.687 32.6918 112.508 33.2407 112.572 33.8589C112.589 34.0495 112.514 34.2229 112.381 34.3673C112.283 34.4713 112.144 34.5811 112.115 34.714C112.035 35.0491 111.821 35.3033 111.671 35.5922C111.486 35.9562 111.231 36.2855 111.133 36.69C111.075 36.9789 110.983 37.2735 110.844 37.5335C110.729 37.7531 110.503 37.9206 110.359 38.1344C110.186 38.3771 110.024 38.6313 109.897 38.9028C109.781 39.1744 109.631 39.4228 109.446 39.6655C109.296 39.8677 109.29 39.8677 109.215 40.1104C109.099 40.5148 108.868 40.8499 108.643 41.1908L106.887 43.9063C106.54 44.8654 105.858 45.6281 105.309 46.4659C105.044 46.8703 104.789 47.2805 104.645 47.7485C104.564 47.997 104.42 48.2107 104.275 48.4303C103.894 48.9792 103.611 49.5916 103.166 50.1C102.865 50.9089 102.345 51.5965 101.86 52.2956C101.796 52.388 101.744 52.492 101.698 52.5902C101.31 53.438 100.823 54.2369 100.248 54.9707C100.115 55.1382 100.132 55.3173 100.26 55.4849C100.416 55.6929 100.589 55.8893 100.739 56.0973C100.912 56.34 101.103 56.5769 101.242 56.8369C101.461 57.2702 101.716 57.6804 102.01 58.0675C102.143 58.2409 102.241 58.4488 102.316 58.6568C102.449 59.0555 102.64 59.4195 102.906 59.7315C103.339 60.2515 103.651 60.8466 103.957 61.4359C104.593 62.6608 104.882 62.9786 105.65 64.1283C106.065 64.7885 106.537 65.411 107.06 65.9888C107.291 66.2314 107.482 66.5088 107.695 66.763C108.169 67.3408 108.129 67.4505 108.735 67.9012C109.117 68.427 109.677 68.7447 110.215 69.0741C111.013 69.5723 111.931 69.8476 112.872 69.8714C113.702 69.9298 114.525 69.6809 115.183 69.1723C115.299 69.0798 115.432 69.0047 115.565 68.9412C115.611 68.9238 115.738 68.9758 115.738 68.999C115.755 69.2243 115.813 69.4727 115.738 69.6576C115.565 70.1025 115.391 70.5647 115.079 70.946C114.964 71.0847 114.831 71.2523 114.669 71.31C113.803 71.6452 112.971 72.09 112.035 72.2576C110.763 72.4887 109.492 72.4078 108.256 72.0554C106.663 71.6203 105.201 70.801 103.998 69.6692C103.864 69.5386 103.738 69.3997 103.622 69.2532C102.842 68.2999 102.565 67.8203 101.773 66.8843C100.813 65.81 100.07 64.5603 99.5835 63.2039C99.3293 62.5857 99.1618 61.9328 98.9249 61.3088C98.6013 60.4768 98.2489 59.6564 97.908 58.8244C97.8502 58.6915 97.7809 58.5586 97.7 58.4373C97.6653 58.3795 97.5844 58.3622 97.5151 58.3448C97.4342 58.316 97.3649 58.3564 97.3533 58.4488C97.3071 58.8186 97.2609 59.1884 97.2378 59.5582C97.18 60.4075 97.2089 61.2684 97.0933 62.1177C97.0702 62.2968 97.0702 63.4581 97.1049 63.6372C97.1973 64.0821 97.1569 64.527 97.1338 64.9661C97.1164 65.4168 97.0876 65.8617 97.0645 66.3065C97.0529 66.4568 97.076 66.6128 97.0298 66.7514C96.7813 67.5141 96.8911 70.2354 96.8565 71.0096C96.8391 71.3852 96.8333 71.7434 96.7236 72.1074C96.608 72.4829 96.8796 72.8296 96.8565 73.2051C96.8449 73.4247 96.8218 73.65 96.7987 73.8696C96.7698 74.2047 96.7236 74.534 96.7005 74.8691C96.6773 75.2042 96.66 75.5336 96.556 75.8571C96.4751 76.0998 96.4347 76.3713 96.4289 76.6255C96.4116 77.9429 96.036 79.1908 95.6836 80.4388C95.5853 80.7855 95.3889 81.1148 95.2098 81.4442C95.0365 81.7562 94.7476 81.9179 94.4009 81.9815C94.0774 82.0393 93.9156 81.9699 93.7769 81.6579C93.6845 81.4557 93.6151 81.2419 93.5111 81.0455C93.1356 80.3522 92.9507 79.6011 92.7831 78.8326C92.5943 77.8863 92.4477 76.932 92.344 75.9727C92.2632 75.2678 92.1707 74.5687 92.1303 73.8638C92.1187 73.6789 92.1129 73.494 92.0725 73.3091C91.9165 72.5349 91.9743 71.7607 91.9743 70.9807V67.2021Z" fill="black"/>
<path fill-rule="evenodd" clip-rule="evenodd" d="M141.339 58.876C140.501 59.0204 139.698 58.6449 138.982 57.992C138.757 57.7887 138.565 57.5508 138.416 57.2871C138.011 56.536 137.624 55.7676 137.422 54.9182C137.28 54.3817 137.231 53.8247 137.277 53.2716C137.335 52.7516 137.393 52.2432 137.376 51.7232C137.364 51.3765 137.404 51.0183 137.503 50.6947C137.664 50.1285 137.716 49.545 137.751 48.9614C137.768 48.7476 137.751 48.5165 137.838 48.3432C138.011 48.0023 137.971 47.6094 138.127 47.2628C138.265 46.9566 138.375 46.6272 138.514 46.321C138.554 46.2343 138.641 46.1477 138.722 46.1188C138.959 46.0206 139.184 45.9108 139.369 45.7028C139.961 45.0977 140.712 44.673 141.535 44.4779C141.813 44.397 142.09 44.3277 142.367 44.2641C142.599 44.2064 142.812 44.2757 143.003 44.4144C143.119 44.4895 143.211 44.5761 143.309 44.6686C143.483 44.8419 143.667 44.9459 143.887 45.0095C144.378 45.1424 144.754 45.4428 144.996 45.9339C145.037 46.0321 145.1 46.1188 145.181 46.1708C145.251 46.2228 145.372 46.2632 145.441 46.2286C145.609 46.1477 145.875 46.2748 146.013 46.1361C146.262 46.1361 146.36 46.1535 146.689 45.7779C147.215 45.1712 147.094 45.6508 147.596 44.8997C148.093 44.4779 148.388 44.1775 148.879 43.7441C149.006 43.6401 149.122 43.7037 149.139 43.877C149.168 44.1544 149.208 44.4259 149.122 44.7032C149.099 45.2695 149.104 45.4775 149.099 45.6855C148.931 46.4654 148.971 46.0552 148.723 46.7832C148.607 47.3379 148.475 47.465 148.226 47.8117C147.752 48.4183 147.637 48.7476 146.984 49.1348C146.568 49.3774 146.591 49.2561 146.192 49.5334C146.019 49.649 145.921 49.8339 145.927 50.0534C145.944 50.8623 145.794 51.6365 145.626 52.4107C145.586 52.5841 145.58 52.7458 145.626 52.9192C145.667 53.052 145.643 53.2023 145.667 53.3352C145.761 54.0227 145.669 54.723 145.401 55.3631C145.285 55.6809 145.164 56.0045 145.077 56.3396C144.916 56.9601 144.526 57.4967 143.985 57.8418C143.719 58.0324 143.436 58.1884 143.176 58.3733C142.737 58.6911 142.263 58.8644 141.738 58.8587C141.645 58.8587 141.547 58.8586 141.339 58.876ZM140.507 51.6481H140.461C140.49 52.1276 140.49 52.6072 140.547 53.0867C140.599 53.5605 140.727 54.0227 140.779 54.5023C140.854 55.1667 141.154 55.7387 141.379 56.3453C141.466 56.5765 141.668 56.7671 141.842 56.9404C142.188 57.2929 142.708 57.2582 143.02 56.8884C143.359 56.5009 143.583 56.0268 143.667 55.5191C143.783 54.8258 143.922 54.1556 144.118 53.4912C144.35 52.786 144.425 52.0386 144.338 51.3014C144.297 50.9663 144.338 50.6081 144.343 50.2614L144.338 49.6085C144.332 49.4583 144.153 49.2792 144.008 49.2908C143.043 49.3485 142.09 49.2503 141.143 49.0712C140.657 48.9845 140.472 49.1636 140.449 49.6894C140.438 49.9494 140.438 50.2094 140.449 50.4752C140.461 50.8681 140.484 51.2552 140.507 51.6481ZM141.582 46.2921C141.316 46.2921 141.189 46.4654 141.229 46.6966C141.345 47.309 141.801 47.5921 142.379 47.4072C142.419 47.3957 142.477 47.2801 142.46 47.2454C142.296 46.9166 142.071 46.6223 141.795 46.3788C141.732 46.321 141.622 46.3037 141.582 46.2921ZM109.336 61.6262C109.198 60.8751 109.278 60.0257 109.284 59.1764V57.8418C109.261 57.0907 109.302 56.3569 109.515 55.6462C109.648 55.2245 109.741 54.7969 109.729 54.3463C109.724 53.8663 109.852 53.3944 110.099 52.9827C110.307 52.6072 110.509 52.2258 110.752 51.8676C111.191 51.209 111.688 50.6196 112.416 50.3192C112.629 50.2267 112.837 50.065 113.005 49.8916C113.434 49.4872 113.989 49.2424 114.577 49.1983C114.709 49.1752 114.848 49.181 114.981 49.1636C115.258 49.1405 115.53 49.0481 115.79 49.0828C116.148 49.129 116.373 49.4641 116.668 49.6605C117.086 49.9475 117.44 50.3173 117.708 50.7467C117.783 50.8681 117.847 51.0298 117.957 51.0934C118.448 51.4112 118.517 51.8965 118.5 52.4396C118.5 52.6187 118.552 52.8036 118.581 52.9885C118.598 53.0752 118.748 53.1618 118.823 53.1387C119.246 52.9919 119.637 52.7686 119.979 52.4801C120.048 52.4281 120.21 52.4858 120.25 52.5667C120.279 52.6303 120.331 52.6938 120.343 52.7632C120.372 52.9076 120.372 53.0578 120.401 53.2023C120.574 53.9071 120.285 54.4156 119.829 54.8547C119.551 55.1262 119.262 55.3747 118.997 55.6636C118.823 55.8369 118.719 56.0738 118.765 56.3569C118.881 57.0271 118.852 57.6858 118.725 58.3444C118.65 58.7489 118.644 59.1533 118.737 59.5578C118.835 60.0026 118.789 60.4417 118.679 60.8751C118.581 61.268 118.488 61.6608 118.43 62.0595C118.349 62.6084 118.211 63.1457 118.124 63.6888C118.026 64.2957 117.72 64.8495 117.257 65.2546C116.727 65.7765 116.092 66.1786 115.393 66.4337C114.694 66.6889 113.949 66.7912 113.207 66.7337C111.774 66.647 110.665 65.867 110.018 64.4168C109.717 63.7524 109.44 62.6373 109.336 61.6262ZM112.884 60.9733C112.901 61.6955 113.132 62.4004 113.375 63.0995C113.606 63.7524 114.01 64.255 114.623 64.5266C114.825 64.619 115.021 64.619 115.224 64.5555C115.425 64.488 115.609 64.3784 115.765 64.2339C115.92 64.0895 116.043 63.9135 116.125 63.7177C116.643 62.7073 116.972 61.6108 117.096 60.4822C117.113 60.2164 117.125 59.9564 117.188 59.708C117.367 58.9915 117.361 58.2404 117.46 57.5124C117.494 57.264 117.448 56.9924 117.425 56.7382C117.413 56.6053 117.252 56.4667 117.13 56.484C116.899 56.5129 116.657 56.5418 116.425 56.5996C115.417 56.8592 114.349 56.7421 113.421 56.2702C113.23 56.172 113.04 56.0969 112.849 56.0045C112.716 55.9467 112.589 56.0565 112.583 56.224C112.577 56.3396 112.554 56.4551 112.566 56.5591C112.664 57.2293 112.647 57.888 112.514 58.5467C112.436 58.95 112.476 59.3673 112.629 59.7484C112.785 60.1355 112.814 60.54 112.884 60.9733ZM115.31 50.377C114.917 50.429 114.594 50.6427 114.478 50.9663C114.363 51.2667 114.282 51.5845 114.207 51.9081C114.184 52.0063 114.195 52.1276 114.23 52.2258C114.49 53.1098 114.559 53.1849 115.38 53.468L116.553 53.8551C116.651 53.884 116.755 53.9014 116.853 53.9129C117.13 53.9591 117.385 53.6703 117.344 53.364C117.324 53.2184 117.289 53.0752 117.24 52.9365C117.113 52.5898 116.969 52.2547 116.824 51.9196C116.778 51.8156 116.743 51.7058 116.674 51.6307C116.312 51.2339 115.943 50.8447 115.565 50.4636C115.507 50.3943 115.38 50.3943 115.31 50.377ZM147.03 53.6645C147.03 53.9487 147.143 54.2213 147.344 54.4223C147.545 54.6233 147.818 54.7362 148.102 54.7362C148.386 54.7362 148.659 54.6233 148.86 54.4223C149.061 54.2213 149.174 53.9487 149.174 53.6645C149.174 53.0752 148.694 52.6014 148.099 52.6014C147.51 52.6014 147.03 53.0752 147.03 53.6645ZM147.169 53.6645C147.169 53.417 147.267 53.1797 147.442 53.0047C147.617 52.8297 147.854 52.7314 148.102 52.7314C148.349 52.7314 148.587 52.8297 148.762 53.0047C148.937 53.1797 149.035 53.417 149.035 53.6645C149.035 54.1729 148.619 54.5889 148.099 54.5889C147.854 54.5889 147.619 54.4915 147.445 54.3182C147.272 54.1448 147.175 53.9097 147.175 53.6645H147.169ZM147.619 54.248H147.851V53.7454H148.122C148.319 53.7454 148.353 53.8378 148.365 53.9938C148.382 54.2076 148.388 54.2365 148.423 54.248H148.7V54.2018C148.625 54.1903 148.607 54.144 148.596 53.9476C148.579 53.7743 148.538 53.6991 148.411 53.6587V53.6471C148.472 53.6328 148.527 53.5981 148.565 53.5487C148.604 53.4994 148.625 53.4384 148.625 53.3756C148.625 53.1445 148.463 53.0289 148.22 53.0289H147.619V54.248ZM147.851 53.2254H148.197C148.324 53.2254 148.399 53.3005 148.399 53.3987C148.399 53.4912 148.324 53.5605 148.191 53.5605H147.845V53.2254H147.851Z" fill="black"/>
</svg>
