<svg width="184" height="33" viewBox="0 0 184 33" fill="none" xmlns="http://www.w3.org/2000/svg">
<path d="M9.27832 10.1128H14.8088C17.1698 10.1128 18.9668 10.642 20.1996 11.7004C21.4441 12.7588 22.0664 14.3057 22.0664 16.3411C22.0664 17.667 21.7698 18.7952 21.1766 19.7256C20.5951 20.6561 19.7344 21.3656 18.5946 21.8541C17.4664 22.3309 16.094 22.5693 14.4773 22.5693H9.27832V10.1128ZM19.4145 16.3236C19.4145 14.9628 19.0307 13.9451 18.2631 13.2705C17.5071 12.5843 16.3615 12.2412 14.8262 12.2412H10.4647L11.8255 10.2873V22.3949L10.4647 20.4409H14.5471C16.1521 20.4409 17.3617 20.0978 18.1759 19.4116C19.0016 18.7137 19.4145 17.6844 19.4145 16.3236Z" fill="#091A2B"/>
<path d="M23.6182 18.1206C23.6182 17.3762 23.7404 16.7074 23.9846 16.1143C24.2405 15.5095 24.5952 14.9919 25.0488 14.5616C25.5141 14.1312 26.0665 13.7997 26.7062 13.5671C27.3459 13.3345 28.0554 13.2182 28.8346 13.2182C29.9047 13.2182 30.8119 13.4043 31.5562 13.7765C32.3122 14.137 32.888 14.6662 33.2834 15.3641C33.6789 16.0503 33.8766 16.8819 33.8766 17.8589V18.6091H24.8918V17.161H32.7251L31.5737 17.7368C31.6086 17.0738 31.533 16.533 31.3469 16.1143C31.1724 15.6956 30.8758 15.3873 30.4571 15.1896C30.0501 14.9919 29.5034 14.893 28.8172 14.893C28.2124 14.893 27.7239 14.9861 27.3517 15.1722C26.9795 15.3583 26.6888 15.6141 26.4794 15.9398C26.2817 16.2538 26.1479 16.6086 26.0781 17.004C26.0084 17.3995 25.9735 17.8124 25.9735 18.2427C25.9735 19.2197 26.2235 19.9524 26.7237 20.4409C27.2354 20.9178 27.9449 21.1562 28.8521 21.1562C29.5616 21.1562 30.1373 21.0515 30.5793 20.8422C31.0212 20.6212 31.3236 20.3013 31.4865 19.8826H33.7545C33.5102 20.8713 32.9694 21.6156 32.132 22.1157C31.3062 22.6042 30.1838 22.8485 28.7649 22.8485C27.1482 22.8485 25.8862 22.4356 24.979 21.6098C24.0718 20.7724 23.6182 19.6093 23.6182 18.1206Z" fill="#091A2B"/>
<path d="M35.3678 18.1206C35.3678 17.3762 35.4899 16.7074 35.7342 16.1143C35.9901 15.5095 36.3448 14.9919 36.7984 14.5616C37.2636 14.1312 37.8161 13.7997 38.4558 13.5671C39.0955 13.3345 39.805 13.2182 40.5842 13.2182C41.6543 13.2182 42.5614 13.4043 43.3058 13.7765C44.0618 14.137 44.6375 14.6662 45.033 15.3641C45.4284 16.0503 45.6262 16.8819 45.6262 17.8589V18.6091H36.6414V17.161H44.4747L43.3233 17.7368C43.3582 17.0738 43.2826 16.533 43.0965 16.1143C42.922 15.6956 42.6254 15.3873 42.2067 15.1896C41.7996 14.9919 41.253 14.893 40.5668 14.893C39.962 14.893 39.4735 14.9861 39.1013 15.1722C38.7291 15.3583 38.4383 15.6141 38.229 15.9398C38.0313 16.2538 37.8975 16.6086 37.8277 17.004C37.7579 17.3995 37.723 17.8124 37.723 18.2427C37.723 19.2197 37.9731 19.9524 38.4732 20.4409C38.985 20.9178 39.6945 21.1562 40.6017 21.1562C41.3111 21.1562 41.8869 21.0515 42.3288 20.8422C42.7708 20.6212 43.0732 20.3013 43.236 19.8826H45.504C45.2598 20.8713 44.719 21.6156 43.8815 22.1157C43.0558 22.6042 41.9334 22.8485 40.5144 22.8485C38.8978 22.8485 37.6358 22.4356 36.7286 21.6098C35.8214 20.7724 35.3678 19.6093 35.3678 18.1206Z" fill="#091A2B"/>
<path d="M47.571 13.4973H49.9611V16.4283L49.6994 15.3815C50.0832 14.6837 50.6299 14.1487 51.3394 13.7765C52.0605 13.4043 52.8688 13.2182 53.7644 13.2182C54.6716 13.2182 55.4625 13.4159 56.1371 13.8114C56.8116 14.1952 57.335 14.7418 57.7072 15.4513C58.0794 16.1608 58.2655 16.9924 58.2655 17.9461C58.2655 18.8998 58.0678 19.7489 57.6723 20.4933C57.2885 21.226 56.7419 21.8017 56.0324 22.2204C55.3229 22.6391 54.4855 22.8485 53.5201 22.8485C52.9386 22.8485 52.4094 22.7729 51.9325 22.6217C51.4557 22.4821 51.0311 22.2669 50.659 21.9762C50.2984 21.6738 49.9844 21.3016 49.7169 20.8596L50.0135 19.8652V25.9539H47.571V13.4973ZM55.7707 17.9985C55.7707 17.3704 55.6602 16.8412 55.4392 16.4109C55.2182 15.9805 54.8926 15.6549 54.4622 15.4339C54.0435 15.2013 53.5376 15.0849 52.9444 15.0849C52.3861 15.0849 51.8802 15.2071 51.4266 15.4513C50.9846 15.6839 50.6357 16.0038 50.3798 16.4109C50.1239 16.8063 49.996 17.2541 49.996 17.7542V18.2427C49.996 18.7777 50.1123 19.2546 50.3449 19.6733C50.5892 20.0804 50.9207 20.4002 51.3394 20.6328C51.7697 20.8654 52.2698 20.9817 52.8397 20.9817C53.4911 20.9817 54.0319 20.8713 54.4622 20.6503C54.8926 20.4177 55.2182 20.0804 55.4392 19.6384C55.6602 19.1848 55.7707 18.6381 55.7707 17.9985Z" fill="#091A2B"/>
<path d="M60.4508 10.1128H63.0328V22.3949L61.6545 20.406H70.744L70.4125 22.5693H60.4508V10.1128Z" fill="#091A2B"/>
<path d="M85.0454 18.9231L86.9592 26.0309L80.5789 23.3882L77.9365 17.009L85.0454 18.9231ZM94.6793 23.3882L88.3011 26.0298L90.215 18.9231L97.3211 17.0098L94.6793 23.3882ZM85.0454 13.7538L77.9365 15.6676L80.5789 9.28866L86.9592 6.646L85.0454 13.7538ZM94.6793 9.28866L97.3211 15.6671L90.215 13.7538L88.3011 6.64681L94.6793 9.28866Z" fill="#091A2B"/>
<path d="M113.905 17.8065L110.573 10.2873H112.37L109.037 17.8065L108.497 19.0801L106.979 22.5693H104.31L110.067 10.1128H112.945L118.72 22.5693H115.964L114.516 19.3593L113.905 17.8065ZM107.206 17.6146H115.737V19.6209H107.206V17.6146Z" fill="#091A2B"/>
<path d="M120.264 10.1128H122.846V22.5693H120.264V10.1128Z" fill="#091A2B"/>
<path d="M130.287 10.1128H132.869V22.3949L131.491 20.406H140.58L140.249 22.5693H130.287V10.1128Z" fill="#091A2B"/>
<path d="M141.489 20.0222C141.489 19.5337 141.594 19.1092 141.803 18.7486C142.012 18.3881 142.326 18.0857 142.745 17.8414C143.175 17.5856 143.716 17.3937 144.367 17.2657C145.03 17.1378 145.81 17.0622 146.705 17.0389L150.194 16.9517V18.3823L146.827 18.4695C146.153 18.4811 145.594 18.5393 145.153 18.644C144.711 18.7486 144.385 18.8998 144.176 19.0976C143.966 19.2953 143.862 19.5453 143.862 19.8477C143.862 20.2665 144.03 20.5863 144.367 20.8073C144.716 21.0283 145.216 21.1388 145.868 21.1388C146.38 21.1388 146.874 21.0515 147.351 20.8771C147.839 20.7026 148.235 20.4525 148.537 20.1269C148.839 19.7896 148.991 19.4 148.991 18.958V16.6377C148.991 16.0445 148.805 15.6025 148.432 15.3117C148.06 15.0093 147.496 14.8581 146.74 14.8581C146.019 14.8581 145.455 14.9512 145.048 15.1373C144.641 15.3234 144.373 15.6083 144.245 15.9921L142.047 15.7828C142.233 14.9221 142.722 14.2824 143.513 13.8637C144.303 13.4334 145.408 13.2182 146.827 13.2182C148.328 13.2182 149.45 13.5148 150.194 14.108C150.939 14.6895 151.311 15.5851 151.311 16.7947V22.5693H149.06V20.3711L149.444 20.8771C148.863 21.5517 148.235 22.046 147.56 22.36C146.897 22.6624 146.106 22.8136 145.187 22.8136C144.013 22.8136 143.1 22.5752 142.448 22.0983C141.809 21.6098 141.489 20.9178 141.489 20.0222Z" fill="#091A2B"/>
<path d="M156.017 22.5693H153.627V10.1128H156.07V15.3117H155.79C156.163 14.6372 156.703 14.1196 157.413 13.759C158.134 13.3985 158.937 13.2182 159.821 13.2182C160.728 13.2182 161.519 13.4159 162.193 13.8114C162.868 14.1952 163.391 14.7418 163.763 15.4513C164.136 16.1608 164.322 16.9924 164.322 17.9461C164.322 18.8998 164.124 19.7489 163.728 20.4933C163.345 21.226 162.798 21.8017 162.089 22.2204C161.379 22.6391 160.542 22.8485 159.576 22.8485C158.692 22.8485 157.931 22.6798 157.291 22.3425C156.651 21.9936 156.128 21.4877 155.721 20.8247H156.017V22.5693ZM156.052 17.7542V18.2427C156.052 18.7777 156.168 19.2546 156.401 19.6733C156.645 20.0804 156.977 20.4002 157.395 20.6328C157.826 20.8654 158.326 20.9817 158.896 20.9817C159.547 20.9817 160.088 20.8713 160.518 20.6503C160.949 20.4177 161.274 20.0804 161.495 19.6384C161.716 19.1848 161.827 18.6381 161.827 17.9985C161.827 17.3704 161.716 16.8412 161.495 16.4109C161.274 15.9805 160.949 15.6549 160.518 15.4339C160.1 15.2013 159.594 15.0849 159.001 15.0849C158.442 15.0849 157.936 15.2071 157.483 15.4513C157.041 15.6839 156.692 16.0038 156.436 16.4109C156.18 16.8063 156.052 17.2541 156.052 17.7542Z" fill="#091A2B"/>
<path d="M173.084 20.0397C173.084 19.8303 173.02 19.6558 172.892 19.5163C172.764 19.3767 172.543 19.2604 172.229 19.1673C171.915 19.0627 171.485 18.9754 170.938 18.9057L169.839 18.7486C168.897 18.5974 168.135 18.4113 167.554 18.1904C166.984 17.9577 166.571 17.6612 166.315 17.3006C166.059 16.9284 165.931 16.469 165.931 15.9224C165.931 15.3525 166.111 14.8698 166.472 14.4743C166.833 14.0673 167.35 13.759 168.025 13.5497C168.699 13.3287 169.513 13.2182 170.467 13.2182C171.433 13.2182 172.235 13.3113 172.875 13.4973C173.514 13.6834 174.02 13.9684 174.393 14.3522C174.765 14.736 175.032 15.2187 175.195 15.8002L172.945 16.027C172.805 15.6083 172.532 15.3059 172.125 15.1198C171.717 14.9221 171.165 14.8233 170.467 14.8233C169.758 14.8233 169.199 14.9221 168.792 15.1198C168.397 15.3176 168.199 15.5793 168.199 15.9049C168.199 16.1026 168.257 16.2713 168.374 16.4109C168.502 16.5504 168.711 16.6667 169.002 16.7598C169.304 16.8528 169.717 16.9401 170.24 17.0215L171.427 17.1959C172.427 17.3355 173.218 17.5216 173.799 17.7542C174.381 17.9752 174.794 18.266 175.038 18.6265C175.282 18.9754 175.404 19.4232 175.404 19.9699C175.404 20.9236 175.009 21.6447 174.218 22.1332C173.439 22.6101 172.27 22.8485 170.711 22.8485C170.002 22.8485 169.356 22.7903 168.775 22.674C168.193 22.5693 167.682 22.4007 167.24 22.1681C166.798 21.9238 166.443 21.6098 166.175 21.226C165.908 20.8422 165.733 20.3769 165.652 19.8303H167.955C168.094 20.2955 168.391 20.6386 168.845 20.8596C169.31 21.0806 169.915 21.1911 170.659 21.1911C171.438 21.1911 172.037 21.0922 172.456 20.8945C172.875 20.6968 173.084 20.4118 173.084 20.0397Z" fill="#091A2B"/>
<path d="M179.014 31.2923V32.6769H4.82921V31.2923H179.014ZM182.06 28.2462V4.43077C182.06 2.74842 180.696 1.38462 179.014 1.38462H4.82921C3.14686 1.38462 1.78305 2.74843 1.78305 4.43077V28.2462C1.78305 29.9285 3.14686 31.2923 4.82921 31.2923V32.6769L4.71481 32.6756C2.35865 32.6159 0.4595 30.7167 0.39979 28.3605L0.398438 28.2462V4.43077C0.398438 2.02197 2.32063 0.0620253 4.71481 0.00135216L4.82921 0H179.014C181.461 0 183.445 1.98372 183.445 4.43077V28.2462L183.443 28.3605C183.383 30.7547 181.423 32.6769 179.014 32.6769V31.2923C180.696 31.2923 182.06 29.9285 182.06 28.2462Z" fill="#091A2B"/>
</svg>
