<svg width="49" height="48" viewBox="0 0 49 48" fill="none" xmlns="http://www.w3.org/2000/svg">
<path d="M48.6331 25.0852C48.6357 24.715 48.4445 24.3706 48.129 24.177H48.1235L48.1036 24.166L31.702 14.4571C31.6312 14.4093 31.5577 14.3655 31.4818 14.3262C30.8486 13.9994 30.0963 13.9994 29.463 14.3262C29.3872 14.3656 29.3137 14.4093 29.2428 14.4571L12.8413 24.166L12.8215 24.177C12.3202 24.4888 12.1665 25.1479 12.4782 25.6491C12.5701 25.7968 12.6966 25.9199 12.8468 26.0076L29.2484 35.7165C29.3195 35.7639 29.3929 35.8077 29.4686 35.8475C30.1018 36.1742 30.8541 36.1742 31.4874 35.8475C31.563 35.8077 31.6365 35.764 31.7076 35.7165L48.1092 26.0076C48.4368 25.8166 48.6369 25.4645 48.6331 25.0852Z" fill="#0A2767"/>
<path d="M14.7532 18.6026H25.5166V28.4689H14.7532V18.6026ZM46.4315 8.57343V4.06022C46.4573 2.93182 45.5642 1.99579 44.4358 1.96875H16.5046C15.3762 1.99579 14.483 2.93182 14.5088 4.06022V8.57343L31.0205 12.9765L46.4315 8.57343Z" fill="#0364B8"/>
<path d="M14.509 8.57343H25.5168V18.4804H14.509V8.57343Z" fill="#0078D4"/>
<path d="M36.5247 8.57343H25.5168V18.4804L36.5247 28.3875H46.4317V18.4804L36.5247 8.57343Z" fill="#28A8EA"/>
<path d="M25.5168 18.4804H36.5246V28.3874H25.5168V18.4804Z" fill="#0078D4"/>
<path d="M25.5168 28.3875H36.5246V38.2945H25.5168V28.3875Z" fill="#0364B8"/>
<path d="M14.7534 28.4689H25.5168V37.4381H14.7534V28.4689Z" fill="#14447D"/>
<path d="M36.5247 28.3875H46.4317V38.2945H36.5247V28.3875Z" fill="#0078D4"/>
<path d="M48.129 25.9471L48.108 25.9581L31.7064 35.1826C31.6349 35.2266 31.5622 35.2684 31.4862 35.3059C31.2077 35.4385 30.9051 35.5134 30.5968 35.526L29.7008 35.0021C29.6251 34.9641 29.5516 34.9218 29.4806 34.8755L12.8589 25.389H12.8512L12.3074 25.0851V43.7588C12.3159 45.0047 13.3324 46.0079 14.5783 46H46.3974C46.4161 46 46.4327 45.9912 46.4525 45.9912C46.7156 45.9743 46.975 45.9202 47.223 45.8305C47.3301 45.7851 47.4336 45.7313 47.5323 45.6697C47.6061 45.6279 47.7327 45.5366 47.7327 45.5366C48.2965 45.1193 48.6303 44.4603 48.6331 43.7588V25.0851C48.6327 25.4423 48.4401 25.7716 48.129 25.9471Z" fill="url(#paint0_linear_707_2350)"/>
<path opacity="0.5" d="M47.7527 25.0114V26.1562L30.6025 37.9643L12.8469 25.3966C12.8469 25.3906 12.842 25.3856 12.8359 25.3856L11.2068 24.4059V23.5803L11.8783 23.5693L13.2983 24.3839L13.3313 24.3949L13.4524 24.472C13.4524 24.472 30.1402 33.9937 30.1842 34.0157L30.8227 34.39C30.8777 34.368 30.9327 34.346 30.9988 34.324C31.0318 34.3019 47.5655 25.0003 47.5655 25.0003L47.7527 25.0114Z" fill="#0A2767"/>
<path d="M48.1292 25.9471L48.1083 25.9592L31.7066 35.1837C31.6351 35.2277 31.5624 35.2695 31.4865 35.307C30.8495 35.6181 30.1046 35.6181 29.4676 35.307C29.3922 35.2696 29.3187 35.2285 29.2475 35.1837L12.8459 25.9592L12.8261 25.9471C12.5094 25.7754 12.3109 25.4453 12.3076 25.0851V43.7588C12.3155 45.0044 13.3317 46.0078 14.5773 46C14.5773 46 14.5774 46 14.5774 46H46.3635C47.6092 46.0079 48.6254 45.0045 48.6334 43.7589C48.6334 43.7589 48.6334 43.7588 48.6334 43.7588V25.0851C48.6329 25.4423 48.4403 25.7716 48.1292 25.9471Z" fill="#1490DF"/>
<path opacity="0.1" d="M31.9456 35.0472L31.7001 35.1848C31.629 35.2301 31.5555 35.2716 31.4799 35.3092C31.2095 35.4419 30.9154 35.5197 30.6147 35.5381L36.8551 42.9178L47.7407 45.5409C48.039 45.3156 48.2762 45.0193 48.4309 44.679L31.9456 35.0472Z" fill="black"/>
<path opacity="0.05" d="M33.0574 34.422L31.7001 35.1848C31.629 35.2301 31.5555 35.2717 31.4799 35.3092C31.2095 35.442 30.9154 35.5198 30.6147 35.5382L33.5384 43.5992L47.744 45.5377C48.3036 45.1175 48.6331 44.4586 48.6334 43.7588V43.5177L33.0574 34.422Z" fill="black"/>
<path d="M14.6082 46H46.3602C46.8488 46.0024 47.3253 45.8481 47.7197 45.5597L29.6999 35.0043C29.6242 34.9663 29.5507 34.924 29.4798 34.8777L12.858 25.3912H12.8503L12.3076 25.0851V43.6949C12.3064 44.9668 13.3364 45.9987 14.6082 46Z" fill="#28A8EA"/>
<path opacity="0.1" d="M27.7183 12.7927V36.2724C27.7163 37.0956 27.2158 37.8356 26.4524 38.1437C26.2159 38.2453 25.9612 38.2978 25.7039 38.2978H12.3074V11.8758H14.5089V10.775H25.7039C26.8159 10.7792 27.7159 11.6807 27.7183 12.7927Z" fill="black"/>
<path opacity="0.2" d="M26.6175 13.8935V37.3732C26.6203 37.6391 26.5639 37.9023 26.4524 38.1437C26.1467 38.8972 25.4163 39.3916 24.6031 39.3953H12.3074V11.8758H24.6031C24.9225 11.8726 25.2373 11.9523 25.5167 12.107C26.1915 12.447 26.6173 13.138 26.6175 13.8935Z" fill="black"/>
<path opacity="0.2" d="M26.6175 13.8935V35.1716C26.6122 36.2832 25.7146 37.1841 24.6031 37.1937H12.3074V11.8758H24.6031C24.9225 11.8726 25.2373 11.9523 25.5167 12.107C26.1915 12.447 26.6173 13.138 26.6175 13.8935Z" fill="black"/>
<path opacity="0.2" d="M25.5167 13.8935V35.1716C25.5155 36.2849 24.6156 37.1883 23.5023 37.1937H12.3074V11.8758H23.5023C24.6154 11.8764 25.5173 12.7793 25.5167 13.8924C25.5167 13.8928 25.5167 13.8932 25.5167 13.8935Z" fill="black"/>
<path d="M3.31753 11.8758H23.4992C24.6136 11.8758 25.517 12.7792 25.517 13.8935V34.0752C25.517 35.1896 24.6136 36.0929 23.4992 36.0929H3.31753C2.20316 36.0929 1.2998 35.1896 1.2998 34.0752V13.8935C1.2998 12.7792 2.20319 11.8758 3.31753 11.8758Z" fill="url(#paint1_linear_707_2350)"/>
<path d="M7.60623 20.3386C8.10353 19.279 8.90622 18.3923 9.91127 17.7925C11.0243 17.1552 12.2916 16.8376 13.5736 16.8744C14.7618 16.8486 15.9342 17.1498 16.9629 17.7451C17.93 18.3219 18.709 19.167 19.2052 20.1778C19.7455 21.2917 20.0148 22.5176 19.9911 23.7554C20.0173 25.049 19.7402 26.3307 19.182 27.498C18.674 28.545 17.8704 29.4202 16.8704 30.0155C15.8021 30.629 14.5861 30.9381 13.3545 30.9093C12.1409 30.9386 10.9426 30.634 9.89036 30.0287C8.91483 29.4512 8.12612 28.6051 7.61835 27.5916C7.07478 26.4938 6.80227 25.2817 6.82359 24.057C6.80095 22.7744 7.0685 21.5032 7.60623 20.3386ZM10.0632 26.3158C10.3283 26.9856 10.7779 27.5665 11.3599 27.9912C11.9526 28.4054 12.6624 28.6192 13.3853 28.601C14.1552 28.6315 14.9141 28.4104 15.5472 27.9713C16.1218 27.5481 16.5596 26.9655 16.8065 26.296C17.0825 25.5482 17.2187 24.756 17.2083 23.959C17.2169 23.1544 17.0888 22.3541 16.8296 21.5923C16.6007 20.9045 16.177 20.2981 15.61 19.8465C14.9927 19.3866 14.2359 19.1534 13.4668 19.186C12.7282 19.1669 12.0025 19.3823 11.394 19.8014C10.8022 20.2278 10.3441 20.8139 10.0731 21.4911C9.47193 23.0433 9.4688 24.7635 10.0643 26.318L10.0632 26.3158Z" fill="white"/>
<path d="M36.5247 8.57343H46.4317V18.4804H36.5247V8.57343Z" fill="#50D9FF"/>
<defs>
<linearGradient id="paint0_linear_707_2350" x1="30.4703" y1="25.0851" x2="30.4703" y2="46" gradientUnits="userSpaceOnUse">
<stop stop-color="#35B8F1"/>
<stop offset="1" stop-color="#28A8EA"/>
</linearGradient>
<linearGradient id="paint1_linear_707_2350" x1="5.50682" y1="10.2992" x2="21.31" y2="37.6696" gradientUnits="userSpaceOnUse">
<stop stop-color="#1784D9"/>
<stop offset="0.5" stop-color="#107AD5"/>
<stop offset="1" stop-color="#0A63C9"/>
</linearGradient>
</defs>
</svg>
