<svg width="49" height="48" viewBox="0 0 49 48" fill="none" xmlns="http://www.w3.org/2000/svg">
<path d="M29.6848 25.7359L26.3075 0.96875H26.0553C13.7744 1.0046 3.82772 10.9513 3.79187 23.2322V23.4844L29.6848 25.7359Z" fill="#ED6C47"/>
<path d="M26.5597 0.96875H26.3075V23.4844L37.5653 27.9875L48.8231 23.4844V23.2322C48.7873 10.9513 38.8406 1.0046 26.5597 0.96875Z" fill="#FF8F6B"/>
<path d="M48.8231 23.4844V23.732C48.7879 36.0157 38.8388 45.9648 26.5552 46H26.0598C13.7762 45.9648 3.82712 36.0157 3.79187 23.732V23.4844H48.8231Z" fill="#D35230"/>
<path opacity="0.1" d="M27.4333 12.0352V36.0593C27.4277 36.8941 26.9218 37.6441 26.1499 37.9619C25.9041 38.0659 25.64 38.1195 25.3731 38.1195H9.10558C8.79037 37.7593 8.48642 37.3765 8.20496 36.9937C5.3368 33.1676 3.78816 28.5138 3.7919 23.732V23.2367C3.78532 18.9236 5.04584 14.7036 7.41691 11.1008C7.66458 10.718 7.9235 10.3352 8.20496 9.97498H25.3731C26.5074 9.98357 27.4247 10.9009 27.4333 12.0352Z" fill="black"/>
<path opacity="0.2" d="M26.3074 13.161V37.1851C26.3074 37.452 26.2538 37.7162 26.1498 37.9619C25.832 38.7338 25.082 39.2397 24.2472 39.2453H10.1299C9.77375 38.8837 9.43198 38.5081 9.10546 38.1195C8.79024 37.7593 8.48629 37.3765 8.20484 36.9937C5.33668 33.1676 3.78804 28.5138 3.79177 23.732V23.2367C3.78519 18.9236 5.04571 14.7036 7.41679 11.1008H24.2472C25.3815 11.1093 26.2989 12.0267 26.3074 13.161Z" fill="black"/>
<path opacity="0.2" d="M26.3075 13.1609V34.9335C26.299 36.0678 25.3816 36.9851 24.2474 36.9937H8.20496C5.3368 33.1676 3.78816 28.5138 3.7919 23.732V23.2367C3.78532 18.9236 5.04584 14.7036 7.41691 11.1008H24.2473C25.3816 11.1093 26.299 12.0267 26.3075 13.1609Z" fill="black"/>
<path opacity="0.2" d="M25.1817 13.1609V34.9335C25.1732 36.0678 24.2558 36.9851 23.1216 36.9937H8.20496C5.3368 33.1676 3.78816 28.5138 3.7919 23.732V23.2367C3.78532 18.9236 5.04584 14.7036 7.41691 11.1008H23.1215C24.2558 11.1093 25.1732 12.0267 25.1817 13.1609Z" fill="black"/>
<path d="M2.4781 11.1008H23.1182C24.2578 11.1008 25.1817 12.0247 25.1817 13.1643V33.8044C25.1817 34.9441 24.2578 35.868 23.1182 35.868H2.4781C1.33845 35.868 0.414551 34.9441 0.414551 33.8044V13.1643C0.414551 12.0247 1.33845 11.1008 2.4781 11.1008Z" fill="url(#paint0_linear_2021_361)"/>
<path d="M13.0234 16.6047C14.367 16.5141 15.699 16.9043 16.7813 17.7058C17.6839 18.5116 18.1662 19.6875 18.0894 20.8951C18.1042 21.7345 17.8805 22.561 17.4444 23.2784C17.0028 23.9834 16.3667 24.5457 15.6127 24.8972C14.7507 25.2981 13.8083 25.4961 12.8579 25.4759H10.2472V30.328H7.57349V16.6047H13.0234ZM10.245 23.3797H12.5461C13.2756 23.4333 13.9994 23.2174 14.5804 22.7729C15.0609 22.312 15.3128 21.6619 15.2682 20.9976C15.2682 19.4852 14.3894 18.7291 12.6317 18.7291H10.245V23.3797H10.245Z" fill="white"/>
<defs>
<linearGradient id="paint0_linear_2021_361" x1="4.71711" y1="9.48835" x2="20.8792" y2="37.4804" gradientUnits="userSpaceOnUse">
<stop stop-color="#CA4C28"/>
<stop offset="0.5" stop-color="#C5401E"/>
<stop offset="1" stop-color="#B62F14"/>
</linearGradient>
</defs>
</svg>
