<svg width="179" height="180" viewBox="0 0 179 180" fill="none" xmlns="http://www.w3.org/2000/svg">
<g clip-path="url(#clip0_2332_8133)">
<path d="M0 12.3335C0 5.70608 5.37258 0.333496 12 0.333496H167C173.627 0.333496 179 5.70608 179 12.3335V167.333C179 173.961 173.627 179.333 167 179.333H12C5.37259 179.333 0 173.961 0 167.333V12.3335Z" fill="#DEF5FF"/>
<path fill-rule="evenodd" clip-rule="evenodd" d="M42.5889 28.8949C43.4866 28.3113 44.7609 28.359 46.1744 29.1751L142.97 85.0602C145.688 86.6295 147.892 90.4464 147.892 93.5852V162.1C147.892 163.606 147.384 164.683 146.556 165.221L149.298 163.638C150.126 163.1 150.634 162.023 150.634 160.517V92.0022C150.634 88.8634 148.43 85.0466 145.712 83.4772L48.9162 27.5921C47.5027 26.7761 46.2284 26.7283 45.3307 27.3119L42.5889 28.8949Z" fill="#0F2B46"/>
<path fill-rule="evenodd" clip-rule="evenodd" d="M146.556 165.222C145.658 165.805 144.384 165.758 142.97 164.941L46.1748 109.056C43.4565 107.487 41.2529 103.67 41.2529 100.531V32.0168C41.2529 30.5102 41.7606 29.4337 42.5893 28.895L45.3311 27.312C44.5025 27.8507 43.9948 28.9272 43.9948 30.4339V98.9482C43.9948 102.087 46.1983 105.904 48.9166 107.473L145.712 163.358C147.126 164.175 148.4 164.222 149.298 163.639L146.556 165.222Z" fill="#0F2B46"/>
<rect x="0.216506" y="0.375" width="122.637" height="79.381" rx="5.43324" transform="matrix(0.866025 0.5 0 1 41.2819 26.2252)" fill="#A6E9FF" stroke="#0F2B46" stroke-width="0.5"/>
<rect width="61.417" height="50.0114" rx="1.89441" transform="matrix(0.866025 0.5 0 1 90.416 79.8604)" fill="#DEF5FF" stroke="#0F2B46" stroke-width="0.5"/>
<rect width="52.6432" height="50.0114" rx="1.89441" transform="matrix(0.866025 0.5 0 1 44.8262 53.5386)" fill="#DEF5FF" stroke="#0F2B46" stroke-width="0.5"/>
<path fill-rule="evenodd" clip-rule="evenodd" d="M35.7734 32.4461C36.0727 32.2516 36.4974 32.2675 36.9686 32.5395L50.1506 40.1501C51.0566 40.6732 51.7912 41.9454 51.7912 42.9917V51.115C51.7912 51.6172 51.6219 51.9761 51.3457 52.1557L54.0875 50.5727C54.3637 50.3931 54.533 50.0342 54.533 49.532V41.4087C54.533 40.3625 53.7984 39.0902 52.8924 38.5671L39.7104 30.9565C39.2393 30.6845 38.8145 30.6686 38.5153 30.8631L35.7734 32.4461Z" fill="#0F2B46"/>
<path fill-rule="evenodd" clip-rule="evenodd" d="M51.3458 52.1559C51.0466 52.3504 50.6218 52.3345 50.1507 52.0625L36.9687 44.4519C36.0627 43.9287 35.3281 42.6565 35.3281 41.6102V33.4869C35.3281 32.9847 35.4974 32.6258 35.7736 32.4463L38.5154 30.8633C38.2392 31.0428 38.07 31.4017 38.07 31.9039V40.0272C38.07 41.0735 38.8045 42.3457 39.7106 42.8689L52.8925 50.4795C53.3637 50.7515 53.7884 50.7674 54.0877 50.5729L51.3458 52.1559Z" fill="#0F2B46"/>
<rect x="0.216506" y="0.375" width="18.51" height="11.4122" rx="1.64441" transform="matrix(0.866025 0.5 0 1 35.3571 31.484)" fill="#DEF5FF" stroke="#0F2B46" stroke-width="0.5"/>
</g>
<defs>
<clipPath id="clip0_2332_8133">
<path d="M0 12.3335C0 5.70608 5.37258 0.333496 12 0.333496H167C173.627 0.333496 179 5.70608 179 12.3335V167.333C179 173.961 173.627 179.333 167 179.333H12C5.37259 179.333 0 173.961 0 167.333V12.3335Z" fill="white"/>
</clipPath>
</defs>
</svg>
