<svg width="48" height="48" viewBox="0 0 48 48" fill="none" xmlns="http://www.w3.org/2000/svg">
<path fill-rule="evenodd" clip-rule="evenodd" d="M40 44.0001L8.00001 44L8.00001 42L40 42.0001L40 44.0001Z" fill="#0F2B46"/>
<path fill-rule="evenodd" clip-rule="evenodd" d="M40 23L8.00001 23L8.00001 21L40 21L40 23Z" fill="#0F2B46"/>
<path fill-rule="evenodd" clip-rule="evenodd" d="M24 36C31.732 36 38 29.732 38 22C38 14.268 31.732 8 24 8C16.268 8 10 14.268 10 22C10 29.732 16.268 36 24 36ZM24 38C32.8366 38 40 30.8366 40 22C40 13.1634 32.8366 6 24 6C15.1634 6 8 13.1634 8 22C8 30.8366 15.1634 38 24 38Z" fill="#0F2B46"/>
<path fill-rule="evenodd" clip-rule="evenodd" d="M23.0002 30.031C19.5274 30.2452 16.0441 31.5543 13.6419 33.5646L12.3584 32.0308C15.3865 29.4968 19.7855 28 24.0002 28C28.279 28 31.6648 29.5394 34.6419 32.0308L33.3584 33.5646C30.9189 31.5231 28.2638 30.2479 25.0002 30.0325V37H23.0002V30.031Z" fill="#0F2B46"/>
<path fill-rule="evenodd" clip-rule="evenodd" d="M24.9998 14.9675C28.2634 14.7521 30.9185 13.4769 33.3581 11.4354L34.6416 12.9692C31.6645 15.4606 28.2787 17 23.9998 17C19.7851 17 15.3861 15.5032 12.3581 12.9692L13.6416 11.4354C16.0438 13.4457 19.527 14.7548 22.9998 14.969L22.9998 8L24.9998 8L24.9998 14.9675Z" fill="#0F2B46"/>
</svg>
