<svg width="48" height="48" viewBox="0 0 48 48" fill="none" xmlns="http://www.w3.org/2000/svg">
<path fill-rule="evenodd" clip-rule="evenodd" d="M40 44.0033H8V42.0033H40V44.0033Z" fill="#0F2B46"/>
<path fill-rule="evenodd" clip-rule="evenodd" d="M16 14C16 9.58172 19.5817 6 24 6C28.4183 6 32 9.58172 32 14V22C32 26.4183 28.4183 30 24 30C19.5817 30 16 26.4183 16 22V14ZM24 8C20.6863 8 18 10.6863 18 14V22C18 25.3137 20.6863 28 24 28C27.3137 28 30 25.3137 30 22V14C30 10.6863 27.3137 8 24 8Z" fill="#0F2B46"/>
<path fill-rule="evenodd" clip-rule="evenodd" d="M14 22C14 27.5228 18.4772 32 24 32H24.5C29.7467 32 34 27.7467 34 22.5H36C36 28.8513 30.8513 34 24.5 34H24C17.3726 34 12 28.6274 12 22H14Z" fill="#0F2B46"/>
<path fill-rule="evenodd" clip-rule="evenodd" d="M23 39V33H25V39H23Z" fill="#0F2B46"/>
<path fill-rule="evenodd" clip-rule="evenodd" d="M16 37L32 37V39L16 39V37Z" fill="#0F2B46"/>
</svg>
