<svg width="49" height="48" viewBox="0 0 49 48" fill="none" xmlns="http://www.w3.org/2000/svg">
<path d="M45.6068 1.96875H14.0498C12.9607 1.96875 12.0779 2.8516 12.0779 3.94066V12.7266L30.3662 18.1055L47.5787 12.7266V3.94066C47.5787 2.8516 46.6958 1.96875 45.6068 1.96875Z" fill="#41A5EE"/>
<path d="M47.5787 12.7266H12.0779V23.4844L30.3662 26.7117L47.5787 23.4844V12.7266Z" fill="#2B7CD3"/>
<path d="M12.0779 23.4844V34.2422L29.2904 36.3938L47.5787 34.2422V23.4844H12.0779Z" fill="#185ABD"/>
<path d="M14.0498 45H45.6068C46.6958 45 47.5787 44.1171 47.5787 43.0281V34.2422H12.0779V43.0281C12.0779 44.1171 12.9607 45 14.0498 45Z" fill="#103F91"/>
<path opacity="0.1" d="M25.1669 10.575H12.0779V37.4695H25.1669C26.2545 37.4659 27.1353 36.5852 27.1388 35.4976V12.5469C27.1353 11.4593 26.2545 10.5785 25.1669 10.575Z" fill="black"/>
<path opacity="0.2" d="M24.0911 11.6508H12.0779V38.5454H24.0911C25.1787 38.5418 26.0595 37.661 26.063 36.5734V13.6227C26.0595 12.5351 25.1787 11.6544 24.0911 11.6508Z" fill="black"/>
<path opacity="0.2" d="M24.0911 11.6508H12.0779V36.3938H24.0911C25.1787 36.3902 26.0595 35.5095 26.063 34.4219V13.6227C26.0595 12.5351 25.1787 11.6544 24.0911 11.6508Z" fill="black"/>
<path opacity="0.2" d="M23.0153 11.6508H12.0779V36.3938H23.0153C24.1029 36.3902 24.9837 35.5095 24.9873 34.4219V13.6227C24.9837 12.5351 24.1029 11.6544 23.0153 11.6508Z" fill="black"/>
<path d="M3.29198 11.6508H23.0153C24.1044 11.6508 24.9873 12.5337 24.9873 13.6227V33.3461C24.9873 34.4352 24.1044 35.318 23.0153 35.318H3.29198C2.20292 35.318 1.32007 34.4352 1.32007 33.3461V13.6227C1.32007 12.5337 2.20292 11.6508 3.29198 11.6508Z" fill="url(#paint0_linear_707_2325)"/>
<path d="M9.41206 26.7741C9.45079 27.0785 9.47661 27.3432 9.48843 27.5702H9.5336C9.55082 27.355 9.58667 27.0958 9.64118 26.7924C9.6957 26.489 9.74483 26.2326 9.78857 26.0232L11.8627 17.0749H14.5446L16.6962 25.8887C16.8212 26.4368 16.9107 26.9923 16.964 27.5519H16.9996C17.0397 27.0098 17.1144 26.4708 17.2233 25.9382L18.9392 17.0706H21.3801L18.3658 29.8939H15.5139L13.4699 21.4016C13.4107 21.1574 13.343 20.8379 13.2687 20.4453C13.1945 20.0526 13.1483 19.7654 13.13 19.5846H13.0945C13.0708 19.7933 13.0245 20.1032 12.9557 20.5141C12.8868 20.9251 12.8316 21.2291 12.79 21.4264L10.8686 29.8917H7.96832L4.93787 17.0748H7.42291L9.29155 26.0415C9.33352 26.2254 9.37333 26.4707 9.41206 26.7741Z" fill="white"/>
<defs>
<linearGradient id="paint0_linear_707_2325" x1="5.43154" y1="10.11" x2="20.8758" y2="36.8588" gradientUnits="userSpaceOnUse">
<stop stop-color="#2368C4"/>
<stop offset="0.5" stop-color="#1A5DBE"/>
<stop offset="1" stop-color="#1146AC"/>
</linearGradient>
</defs>
</svg>
