<svg width="48" height="48" viewBox="0 0 48 48" fill="none" xmlns="http://www.w3.org/2000/svg">
<path fill-rule="evenodd" clip-rule="evenodd" d="M39.9998 43.9995L7.99976 43.9995L7.99976 41.9995L39.9998 41.9995L39.9998 43.9995Z" fill="#0F2B46"/>
<path fill-rule="evenodd" clip-rule="evenodd" d="M31.2205 7.2924C31.611 6.90188 32.2442 6.90188 32.6347 7.2924L39.7079 14.3655C39.8954 14.5531 40.0008 14.8074 40.0008 15.0726C40.0008 15.3379 39.8954 15.5922 39.7079 15.7798L19.903 35.5845C19.7705 35.7171 19.6034 35.8097 19.4208 35.8518L10.2256 37.9739C9.88966 38.0514 9.53745 37.9504 9.29365 37.7066C9.04984 37.4628 8.94883 37.1106 9.02636 36.7746L11.1484 27.5794C11.1905 27.3968 11.2831 27.2297 11.4157 27.0972L31.2205 7.2924ZM31.9276 9.41372L13.537 27.8043L19.1959 33.4632L37.5865 15.0726L31.9276 9.41372ZM17.213 34.3088L12.6915 29.7872L11.3349 35.6653L17.213 34.3088Z" fill="#0F2B46"/>
</svg>
